# xmcd
#
# Track frame offsets:
#	150
#	17908
#	35828
#	51048
#	66689
#	82668
#	97687
#	115283
#	133603
#	149948
#	163528
#	178411
#	189859
#	203583
#	218822
#	235994
#	252427
#	269713
#
# Disc length: 3811 seconds
#
# Revision: 2
# Processed by: cddbd v1.5.1PL0 Copyright (c) Steve Scherf et al.
# Submitted via: audiograbber 1.83.01
#
DISCID=110ee112
DTITLE=Various Artist - RPM RC70
DYEAR=2002
DGENRE=Country
TTITLE0=Kenny Chesney - Young
TTITLE1=Martina McBride - Blessed (Single Version)
TTITLE2=Toby Keith - My List
TTITLE3=Tim McGraw - The Cowboy In Me (Radio Edit)
TTITLE4=Phil Vassar - That's When I Love You
TTITLE5=Lee Ann Womack - Does My Ring Burn Your Finger
TTITLE6=Montgomery Gentry - Cold One Comin' On
TTITLE7=Jamie O'Neal - Shiver
TTITLE8=Tommy Shane Steiner - What If She's An Angel
TTITLE9=Cyndi Thompson - I Always Liked That Best
TTITLE10=Blake Shelton - All Over Me
TTITLE11=Dixie Chicks - Some Days You Gotta Dance
TTITLE12=Blackhawk - Days Of America
TTITLE13=Trisha Yearwood f Don Henley - Inside Out
TTITLE14=Joe Diffie - In Another World
TTITLE15=Sara Evans - Saints and Angels (Single Version)
TTITLE16=Rascal Flatts - I'm Movin' On
TTITLE17=Kenny Rogers - Homeland
EXTD=YEAR: 2002 ID3G: 2
EXTT0=
EXTT1=
EXTT2=
EXTT3=
EXTT4=
EXTT5=
EXTT6=
EXTT7=
EXTT8=
EXTT9=
EXTT10=
EXTT11=
EXTT12=
EXTT13=
EXTT14=
EXTT15=
EXTT16=
EXTT17=
PLAYORDER=
